<?xml version="1.0" encoding="utf-8"?>
<svg id="master-artboard" viewBox="0 0 233.95196533203125 249.75955200195312" version="1.1" xmlns="http://www.w3.org/2000/svg" x="0px" y="0px" style="enable-background:new 0 0 1400 980;" width="233.95196533203125px" height="249.75955200195312px"><defs><style id="ee-google-fonts">@import url(https://fonts.googleapis.com/css?family=Rubik:300,300italic,400,400italic,500,500italic,700,700italic,900,900italic);</style><radialGradient id="gradient-0" gradientUnits="objectBoundingBox" cx="0.5" cy="0.5" r="0.5">
                <stop offset="0" style="stop-color: #000000"/>
                <stop offset="1" style="stop-color: #000000"/>
              </radialGradient><linearGradient id="gradient-1" gradientUnits="userSpaceOnUse" x1="700" y1="0" x2="700" y2="980">
                <stop offset="0" style="stop-color: #000000"/>
                <stop offset="1" style="stop-color: #000000"/>
              </linearGradient><linearGradient id="_Linear1" x1="0" y1="0" x2="1" y2="0" gradientUnits="userSpaceOnUse" gradientTransform="matrix(1.55265e-14,253.568,-253.568,1.55265e-14,164.152,13.248)"><stop offset="0" style="stop-color:#fff;stop-opacity:1"/><stop offset="1" style="stop-color:#b3b3b3;stop-opacity:1"/></linearGradient><linearGradient id="_Linear3" x1="0" y1="0" x2="1" y2="0" gradientUnits="userSpaceOnUse" gradientTransform="matrix(27.4871,-22.5668,22.5668,27.4871,5.04,35.9588)"><stop offset="0" style="stop-color:#ffa995;stop-opacity:0.5"/><stop offset="1" style="stop-color:#ff7c95;stop-opacity:1"/></linearGradient><linearGradient id="_Linear4" x1="0" y1="0" x2="1" y2="0" gradientUnits="userSpaceOnUse" gradientTransform="matrix(1.55265e-14,253.568,-253.568,1.55265e-14,164.152,13.248)"><stop offset="0" style="stop-color:#fff;stop-opacity:1"/><stop offset="1" style="stop-color:#b3b3b3;stop-opacity:1"/></linearGradient><linearGradient id="_Linear6" x1="0" y1="0" x2="1" y2="0" gradientUnits="userSpaceOnUse" gradientTransform="matrix(-20.8732,20.7773,-20.7773,-20.8732,206.726,93.1637)"><stop offset="0" style="stop-color:#00fff1;stop-opacity:0.5"/><stop offset="1" style="stop-color:#19519a;stop-opacity:1"/></linearGradient><linearGradient id="_Linear7" x1="0" y1="0" x2="1" y2="0" gradientUnits="userSpaceOnUse" gradientTransform="matrix(1.55265e-14,253.568,-253.568,1.55265e-14,164.152,13.248)"><stop offset="0" style="stop-color:#fff;stop-opacity:1"/><stop offset="1" style="stop-color:#b3b3b3;stop-opacity:1"/></linearGradient><linearGradient id="_Linear9" x1="0" y1="0" x2="1" y2="0" gradientUnits="userSpaceOnUse" gradientTransform="matrix(40.4936,0,0,40.4936,256.374,33.0809)"><stop offset="0" style="stop-color:#6d29db;stop-opacity:0.8"/><stop offset="1" style="stop-color:#ff2f8e;stop-opacity:0.3"/></linearGradient><linearGradient id="_Linear10" x1="0" y1="0" x2="1" y2="0" gradientUnits="userSpaceOnUse" gradientTransform="matrix(1.55265e-14,253.568,-253.568,1.55265e-14,164.152,13.248)"><stop offset="0" style="stop-color:#fff;stop-opacity:1"/><stop offset="1" style="stop-color:#b3b3b3;stop-opacity:1"/></linearGradient><linearGradient id="_Linear12" x1="0" y1="0" x2="1" y2="0" gradientUnits="userSpaceOnUse" gradientTransform="matrix(22.1854,-14.6679,14.6679,22.1854,437.175,108.92)"><stop offset="0" style="stop-color:#19519a;stop-opacity:1"/><stop offset="1" style="stop-color:#00fff1;stop-opacity:0.5"/></linearGradient><linearGradient id="_Linear13" x1="0" y1="0" x2="1" y2="0" gradientUnits="userSpaceOnUse" gradientTransform="matrix(1.55265e-14,253.568,-253.568,1.55265e-14,164.152,13.248)"><stop offset="0" style="stop-color:#fff;stop-opacity:1"/><stop offset="1" style="stop-color:#b3b3b3;stop-opacity:1"/></linearGradient><linearGradient id="_Linear15" x1="0" y1="0" x2="1" y2="0" gradientUnits="userSpaceOnUse" gradientTransform="matrix(35.9821,0,0,35.9821,509.664,33.2332)"><stop offset="0" style="stop-color:#ff7c95;stop-opacity:1"/><stop offset="1" style="stop-color:#ffa995;stop-opacity:0.5"/></linearGradient><linearGradient id="_Linear16" x1="0" y1="0" x2="1" y2="0" gradientUnits="userSpaceOnUse" gradientTransform="matrix(1.55265e-14,253.568,-253.568,1.55265e-14,164.152,13.248)"><stop offset="0" style="stop-color:#fff;stop-opacity:1"/><stop offset="1" style="stop-color:#b3b3b3;stop-opacity:1"/></linearGradient><linearGradient id="_Linear18" x1="0" y1="0" x2="1" y2="0" gradientUnits="userSpaceOnUse" gradientTransform="matrix(-23.8315,-18.0689,18.0689,-23.8315,673.506,36.387)"><stop offset="0" style="stop-color:#ff2f8e;stop-opacity:0.3"/><stop offset="1" style="stop-color:#6d29db;stop-opacity:0.8"/></linearGradient><linearGradient id="_Linear19" x1="0" y1="0" x2="1" y2="0" gradientUnits="userSpaceOnUse" gradientTransform="matrix(745.268,0,0,7.83009,-2.84217e-14,134.352)"><stop offset="0" style="stop-color:#fff;stop-opacity:1"/><stop offset="1" style="stop-color:#000;stop-opacity:1"/></linearGradient></defs><rect id="ee-background" x="0" y="0" width="233.95196533203125" height="249.75955200195312" style="fill: rgb(255, 255, 255); fill-opacity: 0; pointer-events: none;"/>








































<g transform="matrix(2.034883737564087, 0, 0, 2.034883737564087, 12.852225303649902, -14.942985534667969)"><g><g><path d="M64.224,13.392c5.376,0 10.344,0.984 14.904,2.952c4.56,1.968 8.52,4.656 11.88,8.064c3.36,3.408 6,7.392 7.92,11.952c1.92,4.56 2.88,9.48 2.88,14.76c0,5.184 -0.96,10.056 -2.88,14.616c-1.92,4.56 -4.584,8.568 -7.992,12.024c-3.408,3.456 -7.392,6.168 -11.952,8.136c-4.56,1.968 -9.48,2.952 -14.76,2.952l-29.088,0l0,24.192l-30.096,0l0,-99.792l19.512,0c5.616,0 10.512,0.024 14.688,0.072c4.176,0.048 7.704,0.072 10.584,0.072l14.4,0Zm-4.752,54.432c4.32,0 7.728,-1.248 10.224,-3.744c2.496,-2.496 3.744,-5.76 3.744,-9.792c0,-4.608 -1.272,-8.064 -3.816,-10.368c-2.544,-2.304 -6.072,-3.456 -10.584,-3.456l-23.904,0l0,27.504l24.336,-0.144Z" style="fill:url(#_Linear1);fill-rule:nonzero;"/><clipPath id="_clip2"><path d="M64.224,13.392c5.376,0 10.344,0.984 14.904,2.952c4.56,1.968 8.52,4.656 11.88,8.064c3.36,3.408 6,7.392 7.92,11.952c1.92,4.56 2.88,9.48 2.88,14.76c0,5.184 -0.96,10.056 -2.88,14.616c-1.92,4.56 -4.584,8.568 -7.992,12.024c-3.408,3.456 -7.392,6.168 -11.952,8.136c-4.56,1.968 -9.48,2.952 -14.76,2.952l-29.088,0l0,24.192l-30.096,0l0,-99.792l19.512,0c5.616,0 10.512,0.024 14.688,0.072c4.176,0.048 7.704,0.072 10.584,0.072l14.4,0Zm-4.752,54.432c4.32,0 7.728,-1.248 10.224,-3.744c2.496,-2.496 3.744,-5.76 3.744,-9.792c0,-4.608 -1.272,-8.064 -3.816,-10.368c-2.544,-2.304 -6.072,-3.456 -10.584,-3.456l-23.904,0l0,27.504l24.336,-0.144Z" clip-rule="nonzero"/></clipPath><g clip-path="url(#_clip2)"><path d="M38.235,11.691l-0.801,2.753c-0.108,0.359 -0.108,0.358 -0.218,0.717c-4.401,13.937 -16.466,24.469 -31.289,27.672l-2.823,0.589l-1.022,-4.894l2.806,-0.586c12.862,-2.779 23.787,-11.674 27.75,-24.914l0.797,-2.735c1.6,0.466 3.2,0.932 4.8,1.398Z" style="fill:url(#_Linear3);"/></g><path d="M141.984,113.184l-30.096,0l0,-99.792l59.184,0c5.184,0 10.08,0.984 14.688,2.952c4.608,1.968 8.616,4.68 12.024,8.136c3.408,3.456 6.096,7.464 8.064,12.024c1.968,4.56 2.952,9.432 2.952,14.616c0,6.048 -1.512,11.472 -4.536,16.272c-3.024,4.8 -6.888,8.4 -11.592,10.8l23.743,25.293l-15.637,24.25l-47.321,-49.543c0,0 18.003,-4.57 25.319,-17.352c1.014,-1.772 1.512,-3.96 1.512,-6.552c0,-2.592 -0.504,-4.776 -1.512,-6.552c-1.008,-1.776 -2.352,-3.216 -4.032,-4.32c-1.68,-1.104 -3.624,-1.872 -5.832,-2.304c-2.208,-0.432 -4.512,-0.648 -6.912,-0.648l-20.016,0l0,72.72Z" style="fill:url(#_Linear4);fill-rule:nonzero;"/><clipPath id="_clip5"><path d="M141.984,113.184l-30.096,0l0,-99.792l59.184,0c5.184,0 10.08,0.984 14.688,2.952c4.608,1.968 8.616,4.68 12.024,8.136c3.408,3.456 6.096,7.464 8.064,12.024c1.968,4.56 2.952,9.432 2.952,14.616c0,6.048 -1.512,11.472 -4.536,16.272c-3.024,4.8 -6.888,8.4 -11.592,10.8l23.743,25.293l-15.637,24.25l-47.321,-49.543c0,0 18.003,-4.57 25.319,-17.352c1.014,-1.772 1.512,-3.96 1.512,-6.552c0,-2.592 -0.504,-4.776 -1.512,-6.552c-1.008,-1.776 -2.352,-3.216 -4.032,-4.32c-1.68,-1.104 -3.624,-1.872 -5.832,-2.304c-2.208,-0.432 -4.512,-0.648 -6.912,-0.648l-20.016,0l0,72.72Z" clip-rule="nonzero"/></clipPath><g clip-path="url(#_clip5)"><path d="M204.506,85.869c-3.771,10.826 -10.877,20.584 -22.644,23.569l-2.657,0.653l-1.194,-4.855c6.798,-1.672 13.279,-5 17.098,-10.7c1.592,-2.377 2.803,-4.99 3.763,-7.695l0.912,-2.617c1.574,0.548 3.148,1.096 4.722,1.645Z" style="fill:url(#_Linear6);"/></g><path d="M344.592,113.04l-35.568,0l-8.496,-14.976l-0.027,0l-9.964,-17.46l-11.465,-20.268l-11.641,20.398l-13.987,24.506l-4.468,7.8l-35.424,0l65.376,-110.016l65.664,110.016Z" style="fill:url(#_Linear7);fill-rule:nonzero;"/><clipPath id="_clip8"><path d="M344.592,113.04l-35.568,0l-8.496,-14.976l-0.027,0l-9.964,-17.46l-11.465,-20.268l-11.641,20.398l-13.987,24.506l-4.468,7.8l-35.424,0l65.376,-110.016l65.664,110.016Z" clip-rule="nonzero"/></clipPath><g clip-path="url(#_clip8)"><path d="M306.381,37.578l-2.631,1.279c-15.441,7.384 -33.66,7.404 -49.516,0.006l-2.642,-1.252l2.141,-4.518l2.628,1.245c14.241,6.645 30.852,6.884 45.217,0.015l2.618,-1.272c0.728,1.499 1.457,2.998 2.185,4.497Z" style="fill:url(#_Linear9);"/></g><path d="M459.36,13.248l0,114.192l-81.936,-68.4l0,53.856l-30.096,0l0,-112.896l81.936,68.4l0,-55.152l30.096,0Z" style="fill:url(#_Linear10);fill-rule:nonzero;"/><clipPath id="_clip11"><path d="M459.36,13.248l0,114.192l-81.936,-68.4l0,53.856l-30.096,0l0,-112.896l81.936,68.4l0,-55.152l30.096,0Z" clip-rule="nonzero"/></clipPath><g clip-path="url(#_clip11)"><path d="M465.715,90.524l-1.599,2.335c-7.759,11.177 -20.411,18.248 -34.312,18.112l-2.838,-0.049l0.085,-4.999l2.82,0.048c11.819,0.116 23.148,-5.894 30.129,-15.95l1.589,-2.321c1.376,0.941 2.751,1.883 4.126,2.824Z" style="fill:url(#_Linear12);"/></g><path d="M593.28,113.04l-35.568,0l-8.496,-14.976l-0.027,0l-9.964,-17.46l-11.465,-20.268l-11.641,20.398l-13.987,24.506l-4.468,7.8l-35.424,0l65.376,-110.016l65.664,110.016Z" style="fill:url(#_Linear13);fill-rule:nonzero;"/><clipPath id="_clip14"><path d="M593.28,113.04l-35.568,0l-8.496,-14.976l-0.027,0l-9.964,-17.46l-11.465,-20.268l-11.641,20.398l-13.987,24.506l-4.468,7.8l-35.424,0l65.376,-110.016l65.664,110.016Z" clip-rule="nonzero"/></clipPath><g clip-path="url(#_clip14)"><path d="M554.976,37.73l-2.632,1.279c-15.441,7.384 -33.659,7.405 -49.516,0.006l-2.641,-1.252l2.14,-4.518l2.629,1.245c14.241,6.645 30.852,6.885 45.217,0.015l2.617,-1.272c0.729,1.499 1.457,2.998 2.186,4.497Z" style="fill:url(#_Linear15);"/></g><path d="M687.456,13.248l-66.24,109.872l-66.24,-109.872l35.424,0l30.816,52.992l30.672,-52.992l35.568,0Z" style="fill:url(#_Linear16);fill-rule:nonzero;"/><clipPath id="_clip17"><path d="M687.456,13.248l-66.24,109.872l-66.24,-109.872l35.424,0l30.816,52.992l30.672,-52.992l35.568,0Z" clip-rule="nonzero"/></clipPath><g clip-path="url(#_clip17)"><path d="M654.457,10.819c-0.234,8.366 1.542,17.326 8.607,22.075c3.168,2.13 6.947,3.247 10.776,3.519l2.764,0.169l-0.304,4.99l-2.79,-0.17c-13.484,-0.959 -24.468,-12.735 -24.127,-28.022l0.076,-2.701c1.666,0.047 3.332,0.093 4.998,0.14Z" style="fill:url(#_Linear18);"/></g><path d="M 0 130.751999 H 685.296021 V 137.951999 H 0 V 130.751999 Z" style="fill:url(#_Linear19);fill-rule:nonzero;"/></g></g></g></svg>